<?xml version="1.0" encoding="UTF-8"?>
<svg id="Layer_2" data-name="Layer 2" xmlns="http://www.w3.org/2000/svg" viewBox="0 0 380.2 379.59">
  <defs>
    <style>
      .cls-1 {
        stroke: #fff;
      }

      .cls-1, .cls-2 {
        stroke-miterlimit: 10;
      }

      .cls-2 {
        fill: #fff;
        stroke: #000;
      }

      .cls-3 {
        fill: #26ff00;
        stroke-width: 0px;
      }
    </style>
  </defs>
  <g id="Layer_2-2" data-name="Layer 2">
    <path class="cls-3" d="M0,173.5s150.74,9.69,184.39-120.3l-22.91-3.63L223.04,0l36.51,63.48-21.48-1.81C173.65,229.72,0,173.5,0,173.5Z"/>
    <polygon class="cls-2" points="6.7 379.09 6.7 253.09 119.7 253.09 119.7 378.09 72.7 378.09 72.7 356.09 55.7 356.09 55.7 379.09 6.7 379.09"/>
    <polygon class="cls-2" points="135.7 379.09 135.7 185.09 248.7 185.09 248.7 378.09 201.7 378.09 201.7 356.09 184.7 356.09 184.7 379.09 135.7 379.09"/>
    <polygon class="cls-2" points="266.7 379.09 266.7 55.09 379.7 55.09 379.7 378.09 332.7 378.09 332.7 357.09 315.7 357.09 315.7 379.09 266.7 379.09"/>
    <g>
      <rect class="cls-1" x="33.7" y="307.09" width="17" height="17"/>
      <rect class="cls-1" x="77.7" y="307.09" width="17" height="17"/>
      <rect class="cls-1" x="33.7" y="277.09" width="17" height="17"/>
      <rect class="cls-1" x="77.7" y="277.09" width="17" height="17"/>
    </g>
    <g>
      <g>
        <rect class="cls-1" x="161.7" y="308.09" width="17" height="17"/>
        <rect class="cls-1" x="206.7" y="308.09" width="17" height="17"/>
        <rect class="cls-1" x="162.7" y="278.09" width="17" height="17"/>
        <rect class="cls-1" x="206.7" y="278.09" width="17" height="17"/>
      </g>
      <g>
        <rect class="cls-1" x="161.7" y="244.09" width="17" height="17"/>
        <rect class="cls-1" x="206.7" y="244.09" width="17" height="17"/>
        <rect class="cls-1" x="161.7" y="214.09" width="17" height="17"/>
        <rect class="cls-1" x="206.7" y="214.09" width="17" height="17"/>
      </g>
    </g>
    <g>
      <g>
        <rect class="cls-1" x="291.7" y="308.09" width="17" height="17"/>
        <rect class="cls-1" x="336.7" y="308.09" width="17" height="17"/>
        <rect class="cls-1" x="292.7" y="278.09" width="17" height="17"/>
        <rect class="cls-1" x="336.7" y="278.09" width="17" height="17"/>
      </g>
      <g>
        <rect class="cls-1" x="291.7" y="244.09" width="17" height="17"/>
        <rect class="cls-1" x="335.7" y="244.09" width="17" height="17"/>
        <rect class="cls-1" x="291.7" y="214.09" width="17" height="17"/>
        <rect class="cls-1" x="336.7" y="214.09" width="17" height="17"/>
      </g>
    </g>
    <g>
      <g>
        <rect class="cls-1" x="291.7" y="182.09" width="17" height="17"/>
        <rect class="cls-1" x="336.7" y="182.09" width="17" height="17"/>
        <rect class="cls-1" x="292.7" y="152.09" width="17" height="17"/>
        <rect class="cls-1" x="336.7" y="152.09" width="17" height="17"/>
      </g>
      <g>
        <rect class="cls-1" x="291.7" y="118.09" width="17" height="17"/>
        <rect class="cls-1" x="335.7" y="118.09" width="17" height="17"/>
        <rect class="cls-1" x="291.7" y="88.09" width="17" height="17"/>
        <rect class="cls-1" x="336.7" y="88.09" width="17" height="17"/>
      </g>
    </g>
  </g>
</svg>